<?xml version="1.0" encoding="utf-8"?>
<svg version="1.1" xmlns="http://www.w3.org/2000/svg" xmlns:xlink="http://www.w3.org/1999/xlink" width="16" height="16" viewBox="0 0 16 16">
  <rect width="16" height="16" id="icon-bound" fill="none" />
  <path d="M18.5678824,11.0257451 L18.6101076,11.1962275 L18.6101076,11.1962275 L18.7330322,11.7611707 L18.7330322,11.7611707 L18.8962481,12.5833505 L18.8962481,12.5833505 L18.9685256,13.0220244 L18.9685256,13.0220244 L18.8699653,13.26705 L18.8699653,13.26705 L18.7362681,13.638029 L18.7362681,13.638029 L18.6058236,14.0331426 L18.6058236,14.0331426 L18.4536557,14.5325076 L18.4536557,14.5325076 L18.3419808,14.9251436 L18.3419808,14.9251436 L18.2234096,15.3668262 L18.2234096,15.3668262 L18.1174969,15.7889794 L18.1174969,15.7889794 L17.99992,16.3138355 L17.99992,16.3138355 L17.9452438,16.5969805 L17.9452438,16.5969805 L17.9064785,16.8311102 L17.9064785,16.8311102 L17.8724341,17.0986361 L17.8724341,17.0986361 L17.861987,17.2266977 L17.861987,17.2266977 L17.8614961,17.4185278 L17.8614961,17.4185278 L17.5551128,17.5253339 L17.5551128,17.5253339 L17.0799568,17.6810257 L17.0799568,17.6810257 L16.4659488,17.8660195 L16.4659488,17.8660195 L16.1277329,17.959249 L16.1277329,17.959249 L15.7798331,18.0474971 L15.7798331,18.0474971 L14.1483668,18.4093524 L14.1483668,18.4093524 L13.3907998,18.569993 L13.12639,18.5072486 L13.12639,18.5072486 L12.6343886,18.3802355 L12.6343886,18.3802355 L12.0764151,18.2242813 L12.0764151,18.2242813 L11.6386752,18.0939026 L11.6386752,18.0939026 L11.1560546,17.9421433 L11.1560546,17.9421433 L10.494555,17.7265133 L10.494555,17.7265133 L10.1448188,17.6188409 L10.1448188,17.6188409 L9.84770913,17.5327741 L9.84770913,17.5327741 L9.49401319,17.4389637 L9.49401319,17.4389637 L9.12422274,17.3568302 L9.12422274,17.3568302 L8.98397061,17.3347849 L8.98397061,17.3347849 L8.8911189,17.3844103 L8.8911189,17.3844103 L8.69497597,17.4776441 L8.69497597,17.4776441 L8.50113541,17.5608908 L8.50113541,17.5608908 L8.25506577,17.6575363 L8.25506577,17.6575363 L7.95525315,17.7646032 C7.90072169,17.7831507 7.84388787,17.8020084 7.78472014,17.8211141 L7.43004476,17.9301514 L7.43004476,17.9301514 L6.91853606,18.0733947 L6.91853606,18.0733947 L6.28930288,18.2337216 L6.28930288,18.2337216 L5.5564368,18.4025071 L5.5564368,18.4025071 L4.52366133,18.2016872 L4.52366133,18.2016872 L8.89578239,13.9479349 C8.88182181,13.8936067 8.86231324,13.8414526 8.83823889,13.7910722 L8.79882581,13.716782 L9.06353783,13.4583149 L8.96273586,13.3227589 L8.96273586,13.3227589 L8.84724024,13.1828427 L10.0847373,11.9769092 C10.3284643,12.1727314 10.5840922,12.347433 10.8488826,12.5012359 L11.1166259,12.6480809 L11.2556216,12.4589498 C11.9850744,12.8303343 12.7773432,13.0438214 13.5790143,13.0994113 L13.8799774,13.1128561 L14.1259347,13.1128561 L14.3717217,13.1029872 C15.7633879,13.0191015 17.1304362,12.4598637 18.1938615,11.4252737 C18.3156781,11.3067603 18.4310832,11.1843705 18.5400769,11.0585125 L18.5678824,11.0257451 Z M16.6275001,0.448474492 L17.9040741,6.25277607e-13 L17.9040741,6.25277607e-13 L17.9974327,0.203721315 L17.9974327,0.203721315 L18.0752515,0.388036155 L18.0752515,0.388036155 L18.1675259,0.622837983 L18.1675259,0.622837983 L18.2684736,0.902612862 L18.2684736,0.902612862 L18.3723123,1.22184685 C18.4412169,1.44659723 18.5081942,1.69397773 18.5655344,1.95663643 L18.6814005,2.52120628 L18.6814005,2.52120628 L18.7629588,2.88176144 L18.7629588,2.88176144 L18.8478381,3.23000638 L18.8478381,3.23000638 L19.0519334,3.99400352 L19.0519334,3.99400352 L19.244148,4.65060308 L19.244148,4.65060308 C18.9736576,4.15521557 18.623667,3.6888085 18.1938615,3.27065742 C16.0044563,1.14061917 12.5280686,1.02548197 10.1995301,2.92524582 L10.002809,3.09301717 L9.84337625,3.23984138 L9.62934294,3.45639558 C7.97147888,5.21758485 7.64103786,7.73802747 8.63801986,9.80188144 L8.74991879,10.0212061 L8.55516222,10.1560727 L8.70619467,10.4167103 C8.81165663,10.5885512 8.92667722,10.7564253 9.05132416,10.9195417 L9.24552281,11.1605494 L8.00124013,12.3689066 L7.85799461,12.2548921 L7.85799461,12.2548921 L7.7223459,12.1534901 L7.46340653,12.4030725 C7.40747128,12.3700805 7.35235154,12.3449135 7.29867915,12.3303181 L7.21933506,12.3166968 L1.7608968,17.6271264 L1.8831778,17.7805692 C1.54637294,17.750805 1.26744073,17.7425282 1.04522217,17.7447211 L0.80570828,17.7516728 L0.80570828,17.7516728 L0.547548438,17.7716907 L0.547548438,17.7716907 L0.383202538,17.7953709 L0.383202538,17.7953709 L0.456938303,17.1510021 L0.456938303,17.1510021 L0.516274492,16.7260007 L0.516274492,16.7260007 L0.594230823,16.2435023 L0.594230823,16.2435023 L0.656914039,15.9040003 L0.656914039,15.9040003 L0.728424582,15.5601036 L0.728424582,15.5601036 L0.808983136,15.2202761 L0.808983136,15.2202761 L0.909383252,14.8418534 L0.909383252,14.8418534 L1.05899782,14.3276357 L1.05899782,14.3276357 L1.19796788,13.8909577 L1.19796788,13.8909577 L1.40139639,13.310702 L1.40139639,13.310702 L1.44765403,13.1895102 L1.44765403,13.1895102 L1.42846661,12.8926686 L1.42846661,12.8926686 L1.3918467,12.5485394 L1.3918467,12.5485394 L1.3517039,12.2588226 L1.3517039,12.2588226 L1.29606557,11.9270725 L1.29606557,11.9270725 L1.22243577,11.558607 C1.1946166,11.4302569 1.16338287,11.2966739 1.12831858,11.1587444 L1.03853731,10.8205174 L1.03853731,10.8205174 L0.892038168,10.3131769 L0.892038168,10.3131769 L0.693165848,9.67773981 L0.693165848,9.67773981 L0.389211557,8.78187772 L0.389211557,8.78187772 L0.340624478,8.64645671 L0.340624478,8.64645671 L0.625159967,7.56402021 L0.625159967,7.56402021 L0.747187317,7.07020458 L0.747187317,7.07020458 L0.871349918,6.55249596 L0.871349918,6.55249596 L0.963624283,6.21791197 L0.963624283,6.21791197 L1.06457196,5.89263275 L1.06457196,5.89263275 L1.16841073,5.58596306 L1.16841073,5.58596306 L1.31694114,5.18120561 L1.31694114,5.18120561 L1.53281015,4.64773218 L1.53281015,4.64773218 L1.47224006,4.35465524 L1.47224006,4.35465524 L1.3560416,3.84643499 L1.3560416,3.84643499 L1.17706633,3.1417572 L1.17706633,3.1417572 L1.06349028,2.73027351 C1.04320445,2.65889131 1.02223735,2.586189 1.0005844,2.51228766 C0.946297379,2.32700645 0.885783311,2.14502261 0.822131773,1.96951576 L0.69156083,1.62808017 L0.69156083,1.62808017 L0.558115869,1.3095692 L0.558115869,1.3095692 L0.427289458,1.0196355 L0.427289458,1.0196355 L0.304574167,0.763931722 L0.304574167,0.763931722 L0.105447226,0.377824512 L0.105447226,0.377824512 L-2.48689958e-14,0.188421575 L-2.48689958e-14,0.188421575 L0.0576402759,0.180606364 L0.0576402759,0.180606364 L0.180902589,0.173711593 L0.180902589,0.173711593 L0.473822827,0.170911923 L0.473822827,0.170911923 L0.731111132,0.177951579 L0.731111132,0.177951579 L1.02999819,0.195218336 C1.3473967,0.218484994 1.71689765,0.261080875 2.10761396,0.334971688 C2.25857253,0.363520412 2.41824026,0.402190955 2.58143483,0.447691958 L2.91099093,0.546826024 L2.91099093,0.546826024 L3.24073897,0.658323339 C3.29520114,0.677611422 3.34928743,0.697170837 3.40280591,0.71687968 L3.71556751,0.835950665 L3.71556751,0.835950665 L4.13900487,1.00848169 L4.13900487,1.00848169 L4.37739083,1.11091891 L4.37739083,1.11091891 L4.79003172,1.29801529 L4.79003172,1.29801529 L5.25238954,1.21916086 L5.25238954,1.21916086 L5.76369881,1.1193393 L5.76369881,1.1193393 L6.47044138,0.968267069 L6.47044138,0.968267069 L7.13182501,0.816493491 L7.13182501,0.816493491 L7.34234701,0.765425874 L7.34234701,0.765425874 L7.71625732,0.666910249 L7.71625732,0.666910249 L8.03129279,0.574017538 L8.03129279,0.574017538 L8.29221747,0.487703863 C8.33146035,0.473919621 8.36864712,0.460449345 8.40387703,0.447312953 L8.59256816,0.372660563 L8.59256816,0.372660563 L8.73905866,0.306977518 L8.73905866,0.306977518 L8.8481126,0.251219939 L8.8481126,0.251219939 L8.95192135,0.188285341 L8.95192135,0.188285341 L8.9982957,0.153061234 L8.9982957,0.153061234 L9.16502354,0.163617647 L9.16502354,0.163617647 L9.59507952,0.207581476 L9.59507952,0.207581476 L10.0346921,0.266521592 L10.0346921,0.266521592 L10.3617988,0.319755795 C10.417781,0.329615898 10.4743346,0.339981539 10.5312183,0.350870222 L10.8745511,0.422618874 C11.0462676,0.461771495 11.2166116,0.505946587 11.3790681,0.555616783 L11.7204061,0.669870935 L11.7204061,0.669870935 L12.2316028,0.853728665 L12.2316028,0.853728665 L13.0328728,1.16276613 L13.0328728,1.16276613 L13.4120888,1.31895102 L13.4120888,1.31895102 L14.3538789,1.07361043 L14.3538789,1.07361043 L14.7981731,0.966519263 L14.7981731,0.966519263 L15.0750344,0.904938774 L15.0750344,0.904938774 L15.295972,0.858408207 L15.295972,0.858408207 L15.5323586,0.796379617 L15.5323586,0.796379617 L15.9703712,0.664406655 L15.9703712,0.664406655 L16.6275001,0.448474492 L16.6275001,0.448474492 Z M13.9478543,2.34814652 L14.3088645,2.36533089 L14.5522878,2.39043252 L14.6201181,2.39930543 L14.8486585,2.43581294 C14.9933475,2.46205515 15.1372179,2.49413304 15.2798741,2.5320223 L15.4928982,2.59321168 L15.5627687,2.61544729 L15.8341126,2.71120427 L15.9258417,2.74724023 L16.1231199,2.83116355 L16.3642531,2.94675801 L16.5517867,3.04684918 L16.5517867,3.04684918 L16.7360741,3.15459408 L16.969352,3.30529519 L17.2349238,3.49859687 C17.3801875,3.6110716 17.5209495,3.73169516 17.656532,3.86042593 C17.8496552,4.04379671 18.0254498,4.2371485 18.1839209,4.43886546 C18.3922703,4.70401303 18.5704029,4.98321365 18.7180091,5.27217499 L18.057203,6.9293108 L18.057203,6.9293108 L17.9276247,7.27599856 L17.9276247,7.27599856 L17.8183096,7.59951436 L17.8183096,7.59951436 L17.7280943,7.89408845 L17.7280943,7.89408845 L17.6558155,8.15395111 L17.6558155,8.15395111 L17.578483,8.46603989 L17.578483,8.46603989 L17.5213289,8.73907832 L17.5213289,8.73907832 L17.6401189,9.00013523 L17.6401189,9.00013523 L17.7651769,9.29628866 L17.7651769,9.29628866 L17.8622626,9.5414107 L17.8622626,9.5414107 L17.9649198,9.81772964 C17.9822366,9.86605148 17.9995926,9.9154249 18.0168915,9.96572574 L18.1192285,10.2776668 C18.1359133,10.3311808 18.1523482,10.3853739 18.1684367,10.440122 L18.0856789,10.5416941 L17.9053696,10.7395189 L17.734332,10.9095654 C16.1146743,12.4475515 13.7556758,12.7376881 11.813636,11.8502669 L11.6072084,11.7506833 L11.6175055,11.7372885 L11.3849288,11.6168406 C11.0014786,11.4062872 10.639713,11.1465244 10.3115769,10.8349347 C9.9834409,10.523345 9.70988393,10.1798215 9.48814952,9.81570683 L9.36130553,9.59485784 L9.34668323,9.60371837 C8.28772042,7.72463366 8.55575297,5.37908603 10.2329831,3.78624747 L10.3295127,3.6968672 L10.3295127,3.6968672 L10.4277071,3.61038542 L10.5370526,3.51853166 L10.71968,3.37675285 L10.9252711,3.23191688 L11.1136009,3.11174791 L11.3682675,2.96693245 L11.5674103,2.86615778 L11.7834886,2.76857018 L11.9510271,2.70058888 L12.2046584,2.61078389 L12.4259561,2.54386701 L12.6441498,2.48803809 L12.86171,2.44203009 L13.0721233,2.40642387 L13.2913983,2.37838316 L13.2913983,2.37838316 L13.5115691,2.3593495 L13.7482897,2.3489266 L13.9478543,2.34814652 Z"></path>
</svg>