<?xml version="1.0" encoding="utf-8"?>
<svg version="1.1" xmlns="http://www.w3.org/2000/svg" xmlns:xlink="http://www.w3.org/1999/xlink" width="16" height="16" viewBox="0 0 16 16" fill-rule="evenodd">
  <rect width="16" height="16" id="icon-bound" fill="none" />
  <path id="save-disk" d="M4.672,0L15.04,0C15.57,0 16,0.43 16,0.96L16,15.04C16,15.57 15.57,16 15.04,16L0.96,16C0.43,16 0,15.57 0,15.04L0,4.672L4.672,0ZM8,6.5C9.38,6.5 10.5,7.62 10.5,9C10.5,10.38 9.38,11.5 8,11.5C6.62,11.5 5.5,10.38 5.5,9C5.5,7.62 6.62,6.5 8,6.5ZM14,2.5C14,2.224 13.776,2 13.5,2L8.5,2C8.224,2 8,2.224 8,2.5L8,3.5C8,3.776 8.224,4 8.5,4L13.5,4C13.776,4 14,3.776 14,3.5L14,2.5Z"/>
</svg>
