<?xml version="1.0" encoding="UTF-8" standalone="no"?>
<!DOCTYPE svg PUBLIC "-//W3C//DTD SVG 1.1//EN" "http://www.w3.org/Graphics/SVG/1.1/DTD/svg11.dtd">
<svg width="100%" height="100%" viewBox="0 0 188 32" version="1.1" xmlns="http://www.w3.org/2000/svg" xmlns:xlink="http://www.w3.org/1999/xlink" xml:space="preserve" xmlns:serif="http://www.serif.com/" style="fill-rule:evenodd;clip-rule:evenodd;stroke-linejoin:round;stroke-miterlimit:2;">
    <g transform="matrix(1,0,0,1,0,-256)">
        <g id="hor--neg-mono" transform="matrix(1,0,0,1,7.10543e-15,256)">
            <rect x="0" y="0" width="188" height="32" style="fill:none;"/>
            <g id="text">
                <path d="M49,6L49,10.9C49,10.8 48.2,10.8 47.9,10.7C47.6,10.7 47.3,10.6 46.8,10.6C46,10.6 45.2,10.7 44.6,11C44,11.3 43.5,11.7 43.1,12.2C42.7,12.7 42.4,13.4 42.2,14.2C42.1,15 42,15.9 42,16.8C42,18.7 42.3,20.2 43,21.2C43.7,22.2 44.7,22.7 45.9,22.7C46.7,22.7 47.3,22.6 47.8,22.3C48.3,22 48.7,21.8 49.1,21.1L49.2,22.9L51,22.9L51,6L49,6ZM49,17.5C49,18 48.9,18.5 48.8,19C48.7,19.5 48.5,19.9 48.2,20.2C48,20.5 47.7,20.8 47.3,21C47,21.2 46.6,21.3 46.2,21.3C45.4,21.3 44.8,20.9 44.4,20.1C44,19.3 43.8,18.2 43.8,16.6C43.8,15.1 44,14 44.5,13.2C44.9,12.4 45.7,12.1 46.7,12.1C47.2,12.1 47.6,12.1 48,12.2C48.4,12.3 49,12.4 49,12.5L49,17.5ZM58.8,22.3C58.1,22.6 57.3,22.8 56.5,22.8C55,22.8 53.9,22.4 53.2,21.5C52.5,20.6 52.1,19.2 52.1,17.3C52.1,15.1 52.5,13.4 53.3,12.3C54.1,11.2 55.2,10.6 56.6,10.6C58,10.6 59,11.1 59.8,12.1C60.5,13.1 60.8,14.7 60.7,16.8L54,16.8L54,17C54,18.6 54.2,19.7 54.7,20.4C55.2,21.1 55.8,21.4 56.7,21.4C57.2,21.4 57.8,21.3 58.3,21.1C58.8,20.9 59.4,20.6 60.1,20.1L60.8,21.3C60.1,21.7 59.5,22 58.8,22.3ZM58.2,12.9C57.8,12.3 57.2,12 56.5,12C55.8,12 55.2,12.3 54.8,12.9C54.4,13.5 54.2,14.4 54.1,15.5L58.8,15.5C58.8,14.4 58.6,13.5 58.2,12.9ZM69.2,13.6C69,14.5 68.7,15.4 68.4,16.4C68.1,17.3 67.8,18.3 67.5,19.4C67.2,20.4 66.9,21.5 66.5,22.6L64.7,22.6C64.3,21.4 64,20.3 63.6,19.3L62.7,16.3C62.4,15.4 62.2,14.4 61.9,13.6C61.7,12.7 61.5,11.8 61.3,11L63,11L64.2,15.8C64.6,17.4 65.1,19 65.6,20.7L66.9,15.9C67.3,14.3 67.7,12.7 68.1,11L69.7,11C69.7,11.8 69.5,12.7 69.2,13.6ZM77.1,22.3C76.4,22.6 75.6,22.8 74.8,22.8C73.3,22.8 72.2,22.4 71.5,21.5C70.8,20.6 70.4,19.2 70.4,17.3C70.4,15.1 70.8,13.4 71.6,12.3C72.4,11.2 73.5,10.6 74.9,10.6C76.3,10.6 77.3,11.1 78.1,12.1C78.8,13.1 79.1,14.7 79,16.8L72.3,16.8L72.3,17C72.3,18.6 72.5,19.7 73,20.4C73.5,21.1 74.1,21.4 75,21.4C75.5,21.4 76.1,21.3 76.6,21.1C77.1,20.9 77.7,20.6 78.4,20.1L79.1,21.3C78.4,21.7 77.8,22 77.1,22.3ZM76.5,12.9C76.1,12.3 75.5,12 74.8,12C74.1,12 73.5,12.3 73.1,12.9C72.7,13.5 72.5,14.4 72.4,15.5L77,15.5C77.1,14.4 76.9,13.5 76.5,12.9ZM80.5,22.6L80.5,6.5L82.2,6.5L82.2,22.6L80.5,22.6ZM88.1,22.8C86.6,22.8 85.5,22.3 84.8,21.4C84.1,20.4 83.7,18.9 83.7,16.9C83.7,14.8 84.1,13.3 84.8,12.2C85.5,11.2 86.7,10.7 88.3,10.7C89.8,10.7 90.9,11.2 91.6,12.2C92.3,13.2 92.6,14.7 92.6,16.7C92.6,20.8 91.1,22.8 88.1,22.8ZM90.2,13.2C89.8,12.4 89.1,12 88.1,12C87.2,12 86.6,12.4 86.2,13.1C85.8,13.9 85.6,15 85.6,16.6C85.6,18.3 85.8,19.5 86.2,20.2C86.6,20.9 87.3,21.3 88.2,21.3C89.8,21.3 90.7,19.8 90.7,16.7C90.7,15.1 90.5,13.9 90.2,13.2ZM102.4,21.1C101.6,22.2 100.4,22.8 98.7,22.8C98.3,22.8 97.9,22.8 97.6,22.7C97.3,22.7 97,22.6 96.5,22.5L96.5,26.4L94.8,26.4L94.8,10.9L96.3,10.9L96.4,12.4C96.8,11.7 97.2,11.3 97.7,11C98.2,10.7 98.8,10.6 99.6,10.6C100.9,10.6 101.8,11.1 102.5,12.1C103.2,13.1 103.5,14.6 103.5,16.5C103.5,18.5 103.2,20 102.4,21.1ZM101.1,13.3C100.7,12.5 100.1,12.1 99.3,12.1C98.9,12.1 98.5,12.2 98.2,12.4C97.9,12.6 97.6,12.9 97.4,13.2C97.2,13.5 97,13.9 96.8,14.4C96.6,14.9 96.6,15.3 96.6,15.9L96.6,21C96.9,21.1 97.2,21.2 97.6,21.3C98,21.4 98.4,21.4 98.9,21.4C99.9,21.4 100.6,21 101.1,20.3C101.6,19.6 101.8,18.4 101.8,16.9C101.7,15.2 101.5,14 101.1,13.3ZM117.6,22.6L117.6,14.7C117.6,13.9 117.5,13.2 117.4,12.7C117.3,12.2 116.9,12 116.3,12C115.9,12 115.5,12.1 115.1,12.4C114.7,12.7 114.2,13.1 113.5,13.6L113.5,22.5L111.8,22.5L111.8,14.7C111.8,13.9 111.7,13.2 111.6,12.7C111.5,12.2 111.1,12 110.5,12C110.1,12 109.7,12.1 109.3,12.4C108.9,12.7 108.4,13.1 107.7,13.6L107.7,22.5L106,22.5L106,10.9L107.5,10.9L107.6,12.3L109.3,11.1C109.8,10.8 110.4,10.6 111,10.6C111.7,10.6 112.2,10.8 112.5,11.1C112.8,11.4 113.1,11.8 113.3,12.4C113.9,11.9 114.5,11.5 115.1,11.2C115.7,10.9 116.2,10.7 116.8,10.7C117.8,10.7 118.4,11 118.8,11.6C119.2,12.2 119.3,13.1 119.3,14.4L119.3,22.6L117.6,22.6ZM127.5,22.3C126.8,22.6 126,22.8 125.2,22.8C123.7,22.8 122.6,22.4 121.9,21.5C121.2,20.6 120.8,19.2 120.8,17.3C120.8,15.1 121.2,13.4 122,12.3C122.8,11.2 123.9,10.6 125.3,10.6C126.7,10.6 127.7,11.1 128.5,12.1C129.2,13.1 129.5,14.7 129.4,16.8L122.7,16.8L122.7,17C122.7,18.6 122.9,19.7 123.4,20.4C123.9,21.1 124.5,21.4 125.4,21.4C125.9,21.4 126.5,21.3 127,21.1C127.5,20.9 128.1,20.6 128.8,20.1L129.5,21.3C128.8,21.7 128.1,22 127.5,22.3ZM126.8,12.9C126.4,12.3 125.8,12 125.1,12C124.4,12 123.8,12.3 123.4,12.9C123,13.5 122.8,14.4 122.7,15.5L127.4,15.5C127.4,14.4 127.2,13.5 126.8,12.9ZM136.9,22.5L136.9,14.7C136.9,13.9 136.8,13.2 136.6,12.7C136.4,12.2 136,12 135.4,12C135,12 134.6,12.1 134.2,12.4C133.8,12.7 133.2,13.1 132.6,13.6L132.6,22.5L130.9,22.5L130.9,10.9L132.4,10.9L132.5,12.3C133.1,11.9 133.7,11.5 134.2,11.1C134.8,10.8 135.3,10.6 135.9,10.6C136.9,10.6 137.6,10.9 137.9,11.5C138.3,12.1 138.5,13 138.5,14.3L138.5,22.5L136.9,22.5ZM144.7,22.8C144.1,22.8 143.5,22.7 143.1,22.6C142.7,22.5 142.4,22.2 142.2,21.9C142,21.6 141.8,21.2 141.8,20.6C141.7,20.1 141.7,19.4 141.7,18.7L141.7,12.3L140,12.3L140,10.9L141.7,10.9L141.7,7.7L143.4,7.5L143.4,10.9L145.8,10.9L145.7,12.3L143.5,12.3L143.5,19.8C143.5,20.2 143.6,20.5 143.7,20.7C143.8,20.9 144,21.1 144.2,21.2C144.4,21.3 144.7,21.4 145.1,21.4L145.6,21.4L146.1,21.3L146.3,22.7C145.7,22.7 145.2,22.8 144.7,22.8Z" style="fill:white;fill-rule:nonzero;"/>
                <path d="M157.4,20.4C157.2,20.9 156.9,21.3 156.5,21.6C156.1,21.9 155.6,22.2 155.1,22.4C154.5,22.6 153.9,22.7 153.3,22.7C151.8,22.7 150.8,22.4 150.1,21.8C149.4,21.2 149.2,20.3 149.3,19.3L150.8,19.1C150.8,19.4 150.8,19.6 150.9,19.9C151,20.2 151.1,20.4 151.3,20.6C151.5,20.8 151.8,21 152.1,21.1C152.5,21.2 152.9,21.3 153.5,21.3C154.3,21.3 154.9,21.1 155.4,20.7C155.9,20.3 156.1,19.7 156.1,19C156.1,18.4 155.9,17.9 155.6,17.6C155.3,17.2 154.9,17 154.4,16.7C153.9,16.5 153.4,16.2 152.8,16C152.2,15.8 151.7,15.5 151.2,15.2C150.7,14.9 150.3,14.5 150,14C149.7,13.5 149.5,12.9 149.5,12.1C149.5,11.6 149.6,11.1 149.8,10.6C150,10.2 150.3,9.8 150.6,9.5C151,9.2 151.4,9 151.9,8.8C152.4,8.6 153,8.6 153.7,8.6C154.4,8.6 155,8.7 155.4,8.9C155.9,9.1 156.3,9.3 156.6,9.6C156.9,9.9 157.1,10.2 157.2,10.6C157.3,11 157.4,11.4 157.4,11.8L155.9,12C155.9,11.7 155.9,11.5 155.8,11.2C155.7,11 155.6,10.7 155.4,10.6C155.2,10.4 155,10.3 154.7,10.2C154.4,10.1 154,10 153.6,10C153.2,10 152.8,10.1 152.5,10.2C152.2,10.3 151.9,10.5 151.7,10.6C151.5,10.8 151.3,11 151.2,11.2C151.1,11.4 151,11.7 151,12C151,12.6 151.2,13.1 151.5,13.4C151.8,13.8 152.3,14 152.8,14.3L154.4,15C155,15.2 155.5,15.5 156,15.8C156.5,16.1 156.9,16.5 157.3,17C157.6,17.5 157.8,18.1 157.8,18.9C157.7,19.4 157.6,19.9 157.4,20.4ZM159.7,22.6L159.7,8.9L166.6,8.9L166.5,10.3L161.4,10.3L161.4,14.8L165.4,14.8L165.4,16.2L161.4,16.2L161.4,21.2L166.7,21.2L166.7,22.6L159.7,22.6ZM168.8,22.6L168.8,8.9L175.7,8.9L175.6,10.3L170.5,10.3L170.5,14.8L174.5,14.8L174.5,16.2L170.5,16.2L170.5,21.2L175.8,21.2L175.8,22.6L168.8,22.6ZM186.8,18.4C186.5,19.3 186.1,20 185.6,20.6C185.1,21.2 184.4,21.7 183.7,22C182.9,22.3 182.1,22.5 181.1,22.5L178.2,22.5L178.2,8.9L181.1,8.9C183.1,8.9 184.7,9.5 185.7,10.7C186.7,11.9 187.2,13.5 187.2,15.6C187.2,16.6 187.1,17.5 186.8,18.4ZM184.4,11.7C183.7,10.7 182.6,10.2 181,10.2L179.9,10.2L179.9,21.1L181.3,21.1C182.7,21.1 183.7,20.6 184.4,19.7C185.1,18.8 185.5,17.4 185.5,15.7C185.4,14 185.1,12.7 184.4,11.7Z" style="fill:white;fill-rule:nonzero;"/>
            </g>
            <g id="symbol" transform="matrix(0.25,0,0,0.25,34.75,-29.5)">
                <path d="M-73.519,246L-131,246C-135.4,246 -139,242.4 -139,238L-139,126C-139,121.6 -135.4,118 -131,118L-19,118C-14.6,118 -11,121.6 -11,126L-11,238C-11,242.4 -14.6,246 -19,246L-68.708,246L-68.708,240.818C-68.338,239.338 -68.338,234.526 -67.597,233.415C-65.376,227.493 -61.675,224.902 -56.123,221.201C-61.305,223.052 -63.526,222.311 -67.227,228.233C-67.227,226.013 -66.487,223.792 -65.747,221.571C-67.967,223.422 -68.708,225.642 -69.448,228.604C-69.078,225.272 -67.597,203.064 -67.597,201.954C-62.045,185.668 -64.636,137.55 -57.233,131.258C-65.376,132.738 -68.338,141.251 -70.928,147.914C-73.519,140.141 -71.299,134.959 -80.182,131.998C-73.149,137.92 -74.63,143.102 -73.149,151.245C-77.221,145.693 -76.11,139.03 -80.922,133.478C-82.403,131.998 -86.844,128.667 -86.844,128.667C-86.844,129.037 -83.143,136.069 -82.403,140.141C-81.662,143.842 -80.182,151.615 -80.182,154.576C-79.442,170.122 -75.74,185.298 -72.779,200.843C-72.409,203.434 -70.928,211.207 -70.928,211.207L-70.558,214.538C-70.928,212.318 -71.669,210.467 -71.669,209.727C-72.409,207.506 -74.26,201.584 -75,198.993C-81.662,185.298 -93.507,159.018 -109.793,154.946C-100.539,163.089 -90.916,173.823 -88.695,184.187C-93.507,177.155 -112.754,162.719 -120.897,157.167C-106.091,172.343 -94.247,188.259 -81.292,205.285C-77.591,210.097 -72.779,220.09 -72.409,222.311C-72.039,223.792 -72.039,230.084 -71.669,233.785C-78.701,216.389 -82.773,207.506 -96.098,199.733C-98.319,198.623 -105.351,196.032 -105.351,196.032C-102.02,199.733 -98.319,199.733 -95.358,204.545C-101.28,200.473 -107.572,199.733 -114.605,199.733C-92.396,211.207 -80.552,214.538 -73.149,236.376C-72.409,240.078 -73.519,242.299 -73.519,246ZM-45.389,176.414C-47.24,178.265 -52.792,184.927 -52.792,184.927C-52.422,175.304 -50.201,164.94 -43.909,157.537C-52.422,163.089 -57.233,177.155 -59.824,185.668C-60.565,188.999 -70.928,208.986 -66.117,219.72C-65.376,215.649 -63.156,211.947 -60.565,208.616C-59.454,207.136 -54.642,199.363 -49.831,188.629C-45.759,177.895 -38.727,171.232 -29.103,166.05C-36.136,167.161 -40.207,171.232 -45.389,176.414Z" style="fill:white;fill-rule:nonzero;"/>
            </g>
        </g>
    </g>
</svg>
